<svg id="EPOC" xmlns="http://www.w3.org/2000/svg" xmlns:xlink="http://www.w3.org/1999/xlink" viewBox="0 0 1080 1080"><defs><style>.cls-1{fill:url(#Degradado_sin_nombre_11);}.cls-2{clip-path:url(#clip-path);}.cls-3{fill:url(#Degradado_sin_nombre_13);}.cls-4{fill:url(#Degradado_sin_nombre_17);}.cls-5{fill:url(#Degradado_sin_nombre_12);}.cls-6{fill:url(#Degradado_sin_nombre_15);}.cls-7{fill:#00b9b1;}.cls-8{fill:#003278;}</style><linearGradient id="Degradado_sin_nombre_11" x1="101.75" y1="534.38" x2="978.25" y2="534.38" gradientUnits="userSpaceOnUse"><stop offset="0" stop-color="#28ffff"/><stop offset="1" stop-color="#003278"/></linearGradient><clipPath id="clip-path"><path class="cls-1" d="M587.42,419.64c-32.71-112.43-1.55-347.5-1.55-347.5h-94s31.32,236.25-1.79,348.35c-7.45,25.22-26.47,45.6-51.43,53.9-.53.17-1,.33-1.47.46-13.87-65.26,26.36-129.93,13.68-196.17-8-41.51-38.89-60.4-80.85-42.44C233.91,294.48,159.74,457.83,125.52,592.76c-22.78,89.81-28.23,183.35-20.41,275.56C109,914,137.68,1043.07,213.2,979.21A126.53,126.53,0,0,0,236.79,952a179.79,179.79,0,0,1,86.4-68.55c49.71-18.64,125.61-2.66,153.12-62.29a74.94,74.94,0,0,0,4.83-14.22c17.19-73.26-12.81-144.13-19.27-216.06-2.8-31.17-1.63-58.24,16.78-84.43C508.46,464,561,465.5,596,499.61c1.89,2.18,3.69,4.44,5.37,6.82,18.41,26.2,19.58,53.27,16.78,84.44-6.46,71.93-36.46,142.8-19.27,216a75.28,75.28,0,0,0,4.83,14.23c27.51,59.63,103.41,43.65,153.12,62.29A179.75,179.75,0,0,1,843.21,952a126.76,126.76,0,0,0,23.59,27.21C942.32,1043.07,971,914,974.89,868.32c7.82-92.21,2.37-185.75-20.41-275.56C920.26,457.83,846.09,294.48,710,236.24c-42-18-72.9.93-80.85,42.44-12.68,66.24,27.55,130.91,13.68,196.17-1.38-.41-3.19-1-5.28-1.76A80.72,80.72,0,0,1,587.42,419.64Z"/></clipPath><linearGradient id="Degradado_sin_nombre_13" x1="434.99" y1="816.08" x2="1172.15" y2="816.08" gradientUnits="userSpaceOnUse"><stop offset="0" stop-color="#003278"/><stop offset="1" stop-color="#28ffff"/></linearGradient><linearGradient id="Degradado_sin_nombre_17" x1="-62.5" y1="807.53" x2="296.62" y2="448.42" xlink:href="#Degradado_sin_nombre_13"/><linearGradient id="Degradado_sin_nombre_12" x1="228.7" y1="762.88" x2="709.21" y2="282.37" xlink:href="#Degradado_sin_nombre_13"/><linearGradient id="Degradado_sin_nombre_15" x1="286.63" y1="206.89" x2="794.49" y2="206.89" xlink:href="#Degradado_sin_nombre_11"/></defs><title>Pulmon</title><path class="cls-1" d="M587.42,419.64c-32.71-112.43-1.55-347.5-1.55-347.5h-94s31.32,236.25-1.79,348.35c-7.45,25.22-26.47,45.6-51.43,53.9-.53.17-1,.33-1.47.46-13.87-65.26,26.36-129.93,13.68-196.17-8-41.51-38.89-60.4-80.85-42.44C233.91,294.48,159.74,457.83,125.52,592.76c-22.78,89.81-28.23,183.35-20.41,275.56C109,914,137.68,1043.07,213.2,979.21A126.53,126.53,0,0,0,236.79,952a179.79,179.79,0,0,1,86.4-68.55c49.71-18.64,125.61-2.66,153.12-62.29a74.94,74.94,0,0,0,4.83-14.22c17.19-73.26-12.81-144.13-19.27-216.06-2.8-31.17-1.63-58.24,16.78-84.43C508.46,464,561,465.5,596,499.61c1.89,2.18,3.69,4.44,5.37,6.82,18.41,26.2,19.58,53.27,16.78,84.44-6.46,71.93-36.46,142.8-19.27,216a75.28,75.28,0,0,0,4.83,14.23c27.51,59.63,103.41,43.65,153.12,62.29A179.75,179.75,0,0,1,843.21,952a126.76,126.76,0,0,0,23.59,27.21C942.32,1043.07,971,914,974.89,868.32c7.82-92.21,2.37-185.75-20.41-275.56C920.26,457.83,846.09,294.48,710,236.24c-42-18-72.9.93-80.85,42.44-12.68,66.24,27.55,130.91,13.68,196.17-1.38-.41-3.19-1-5.28-1.76A80.72,80.72,0,0,1,587.42,419.64Z"/><g class="cls-2"><circle class="cls-3" cx="803.57" cy="816.08" r="368.58"/><circle class="cls-4" cx="117.06" cy="627.97" r="253.93"/><circle class="cls-5" cx="468.95" cy="522.63" r="339.77"/><circle class="cls-6" cx="540.56" cy="206.89" r="253.93"/></g><circle class="cls-7" cx="340.91" cy="80.47" r="73.73"/><circle class="cls-8" cx="620.19" cy="999.53" r="73.73"/><circle class="cls-7" cx="402.13" cy="960.05" r="37.37"/><circle class="cls-8" cx="216.86" cy="228.62" r="37.37"/><circle class="cls-8" cx="763.23" cy="129.6" r="37.37"/></svg>